<?xml version="1.0" encoding="UTF-8" standalone="no" ?>
<!DOCTYPE svg PUBLIC "-//W3C//DTD SVG 1.1//EN" "http://www.w3.org/Graphics/SVG/1.1/DTD/svg11.dtd">
<svg xmlns="http://www.w3.org/2000/svg" xmlns:xlink="http://www.w3.org/1999/xlink" version="1.1" width="500" height="500" viewBox="0 0 500 500" xml:space="preserve">
<desc>Created with Fabric.js 4.6.0</desc>
<defs>
</defs>
<g transform="matrix(1.95 0 0 1.95 373.37 189.07)" id="Xgg5j-xd334gATHdYO80-"  >
<path style="stroke: none; stroke-width: 1; stroke-dasharray: none; stroke-linecap: butt; stroke-dashoffset: 0; stroke-linejoin: miter; stroke-miterlimit: 4; fill: rgb(179,181,179); fill-rule: nonzero; opacity: 1;" vector-effect="non-scaling-stroke"  transform=" translate(-40, -40)" d="M 40.826 0.326 L 79.199 36.161 C 80.002 36.911 79.471 38.256 78.373 38.256 L 73.129 38.256 C 72.46000000000001 38.256 71.918 38.798 71.918 39.467 L 71.918 78.78999999999999 C 71.918 79.45899999999999 71.376 80.00099999999999 70.70700000000001 80.00099999999999 L 55.755 80.00099999999999 C 55.086000000000006 80.00099999999999 54.544000000000004 79.45899999999999 54.544000000000004 78.78999999999999 L 54.544000000000004 49.552 C 54.544000000000004 46.261 51.876000000000005 43.593 48.58500000000001 43.593 L 31.414 43.593 C 28.123 43.593 25.455000000000002 46.261 25.455000000000002 49.55200000000001 L 25.455000000000002 78.789 C 25.455000000000002 79.458 24.913 80 24.244000000000003 80 L 9.293 80 C 8.623999999999999 80 8.081999999999999 79.458 8.081999999999999 78.789 L 8.081999999999999 39.467 C 8.081999999999999 38.798 7.539999999999999 38.256 6.870999999999999 38.256 L 1.627 38.256 C 0.528 38.256 -0.0020000000000000018 36.911 0.801 36.161 L 39.174 0.326 C 39.639 -0.109 40.361 -0.109 40.826 0.326 z" stroke-linecap="round" />
</g>
<g transform="matrix(3.8 0 0 3.8 248.44 268.01)" id="9TE429ctNP8HIK2etrbVn"  >
<g style="opacity: 0.82;" vector-effect="non-scaling-stroke"   >
		<g transform="matrix(1 0 0 1 0 0)" id="eKefxSGBye9HOChL5onxK"  >
<path style="stroke: none; stroke-width: 1; stroke-dasharray: none; stroke-linecap: butt; stroke-dashoffset: 0; stroke-linejoin: miter; stroke-miterlimit: 4; fill: rgb(179,181,179); fill-rule: nonzero; opacity: 1;" vector-effect="non-scaling-stroke"  transform=" translate(-40, -40)" d="M 80 33.5 C 80 37.4 76.8 40.6 72.9 40.6 C 70.7 40.6 68.80000000000001 39.6 67.5 38.1 L 58.3 43.7 C 58.599999999999994 44.5 58.8 45.400000000000006 58.8 46.400000000000006 C 58.8 50.300000000000004 55.599999999999994 53.50000000000001 51.699999999999996 53.50000000000001 C 47.8 53.50000000000001 44.599999999999994 50.300000000000004 44.599999999999994 46.400000000000006 C 44.599999999999994 45.60000000000001 44.8 44.800000000000004 44.99999999999999 44.00000000000001 L 33.9 38 C 32.6 39.7 30.599999999999998 40.7 28.299999999999997 40.7 C 26.099999999999998 40.7 24.199999999999996 39.7 22.9 38.2 L 13.7 43.800000000000004 C 14 44.6 14.2 45.50000000000001 14.2 46.50000000000001 C 14.2 50.400000000000006 11 53.60000000000001 7.1 53.60000000000001 C 3.1999999999999997 53.60000000000001 0 50.400000000000006 0 46.50000000000001 C 0 42.60000000000001 3.2 39.400000000000006 7.1 39.400000000000006 C 9.3 39.400000000000006 11.2 40.400000000000006 12.5 41.900000000000006 L 21.7 36.300000000000004 C 21.4 35.50000000000001 21.2 34.6 21.2 33.6 C 21.2 29.700000000000003 24.4 26.5 28.299999999999997 26.5 C 32.199999999999996 26.5 35.4 29.7 35.4 33.6 C 35.4 34.4 35.199999999999996 35.2 35 36 L 46.1 42 C 47.4 40.3 49.4 39.3 51.7 39.3 C 53.900000000000006 39.3 55.800000000000004 40.3 57.1 41.8 L 66.3 36.199999999999996 C 66 35.4 65.8 34.49999999999999 65.8 33.49999999999999 C 65.8 29.599999999999994 69 26.39999999999999 72.89999999999999 26.39999999999999 C 76.8 26.4 80 29.6 80 33.5 z" stroke-linecap="round" />
</g>
		<g transform="matrix(1 0 0 1 32.9 -6.5)" id="nJ342JfsrXdbJ3gj_6hla"  >
<path style="stroke: none; stroke-width: 1; stroke-dasharray: none; stroke-linecap: butt; stroke-dashoffset: 0; stroke-linejoin: miter; stroke-miterlimit: 4; fill: rgb(255,255,255); fill-rule: nonzero; opacity: 1;" vector-effect="non-scaling-stroke"  transform=" translate(-72.9, -33.5)" d="M 72.9 30.2 C 71.10000000000001 30.2 69.60000000000001 31.7 69.60000000000001 33.5 C 69.60000000000001 35.3 71.10000000000001 36.8 72.9 36.8 C 74.7 36.8 76.2 35.3 76.2 33.5 C 76.2 31.7 74.7 30.2 72.9 30.2 z" stroke-linecap="round" />
</g>
		<g transform="matrix(1 0 0 1 11.7 6.4)" id="zEsYV6YyQ3-JXfNxGRuxF"  >
<path style="stroke: none; stroke-width: 1; stroke-dasharray: none; stroke-linecap: butt; stroke-dashoffset: 0; stroke-linejoin: miter; stroke-miterlimit: 4; fill: rgb(255,255,255); fill-rule: nonzero; opacity: 1;" vector-effect="non-scaling-stroke"  transform=" translate(-51.7, -46.4)" d="M 51.7 43.1 C 49.900000000000006 43.1 48.400000000000006 44.6 48.400000000000006 46.4 C 48.400000000000006 48.199999999999996 49.900000000000006 49.699999999999996 51.7 49.699999999999996 C 53.5 49.699999999999996 55 48.199999999999996 55 46.4 C 55 44.6 53.5 43.1 51.7 43.1 z" stroke-linecap="round" />
</g>
		<g transform="matrix(1 0 0 1 -11.7 -6.5)" id="qZSbdflgYbBE8UVRxSk-O"  >
<path style="stroke: none; stroke-width: 1; stroke-dasharray: none; stroke-linecap: butt; stroke-dashoffset: 0; stroke-linejoin: miter; stroke-miterlimit: 4; fill: rgb(255,255,255); fill-rule: nonzero; opacity: 1;" vector-effect="non-scaling-stroke"  transform=" translate(-28.3, -33.5)" d="M 28.3 30.2 C 26.5 30.2 25 31.7 25 33.5 C 25 35.3 26.5 36.8 28.3 36.8 C 30.1 36.8 31.6 35.3 31.6 33.5 C 31.6 31.7 30.1 30.2 28.3 30.2 z" stroke-linecap="round" />
</g>
		<g transform="matrix(1 0 0 1 -32.8 6.5)" id="oCHdx59O20Q9m2lxr7apK"  >
<path style="stroke: none; stroke-width: 1; stroke-dasharray: none; stroke-linecap: butt; stroke-dashoffset: 0; stroke-linejoin: miter; stroke-miterlimit: 4; fill: rgb(255,255,255); fill-rule: nonzero; opacity: 1;" vector-effect="non-scaling-stroke"  transform=" translate(-7.2, -46.5)" d="M 10.5 46.5 C 10.5 48.3 9 49.8 7.2 49.8 C 5.4 49.8 3.9000000000000004 48.3 3.9000000000000004 46.5 C 3.9000000000000004 44.7 5.4 43.2 7.2 43.2 C 9 43.2 10.5 44.6 10.5 46.5 z" stroke-linecap="round" />
</g>
</g>
</g>
</svg>